<?xml version="1.0" encoding="UTF-8"?>
<svg xmlns="http://www.w3.org/2000/svg" version="1.1" width="1024px" height="1024px" style="shape-rendering:geometricPrecision; text-rendering:geometricPrecision; image-rendering:optimizeQuality; fill-rule:evenodd; clip-rule:evenodd" xmlns:xlink="http://www.w3.org/1999/xlink">
<g><path style="opacity:1" fill="#000000" d="M 472.5,-0.5 C 498.833,-0.5 525.167,-0.5 551.5,-0.5C 557.198,29.3501 562.364,59.3501 567,89.5C 567.674,90.5784 568.674,91.2451 570,91.5C 595.318,95.0635 620.151,100.73 644.5,108.5C 662.517,84.6321 680.017,60.2988 697,35.5C 697.739,34.4258 698.739,33.7591 700,33.5C 724.427,42.7515 747.927,53.9182 770.5,67C 771.357,67.6891 772.023,68.5224 772.5,69.5C 763.057,98.6506 754.557,127.984 747,157.5C 769.104,171.929 789.771,188.262 809,206.5C 835.694,190.986 862.694,175.986 890,161.5C 909.098,180.588 925.931,201.421 940.5,224C 920.217,247.287 899.55,270.287 878.5,293C 892.257,316.014 904.257,339.847 914.5,364.5C 945.109,361.848 975.775,360.015 1006.5,359C 1013.68,381.561 1019.35,404.394 1023.5,427.5C 1023.5,430.833 1023.5,434.167 1023.5,437.5C 995.526,448.818 967.526,460.151 939.5,471.5C 939.167,473.5 938.833,475.5 938.5,477.5C 939.427,502.19 939.761,526.857 939.5,551.5C 967.526,562.849 995.526,574.182 1023.5,585.5C 1023.5,588.833 1023.5,592.167 1023.5,595.5C 1019.35,618.606 1013.68,641.439 1006.5,664C 975.774,662.996 945.108,661.163 914.5,658.5C 904.257,683.153 892.257,706.986 878.5,730C 899.55,752.713 920.217,775.713 940.5,799C 925.931,821.579 909.098,842.412 890,861.5C 862.694,847.014 835.694,832.014 809,816.5C 789.771,834.738 769.104,851.071 747,865.5C 754.656,895.147 763.156,924.647 772.5,954C 749.651,968.34 725.485,980.174 700,989.5C 698.739,989.241 697.739,988.574 697,987.5C 680.017,962.701 662.517,938.368 644.5,914.5C 620.151,922.27 595.318,927.937 570,931.5C 568.674,931.755 567.674,932.422 567,933.5C 562.364,963.65 557.198,993.65 551.5,1023.5C 524.833,1023.5 498.167,1023.5 471.5,1023.5C 465.802,993.65 460.636,963.65 456,933.5C 455.326,932.422 454.326,931.755 453,931.5C 427.682,927.937 402.849,922.27 378.5,914.5C 360.483,938.368 342.983,962.701 326,987.5C 325.261,988.574 324.261,989.241 323,989.5C 298.573,980.249 275.073,969.082 252.5,956C 251.643,955.311 250.977,954.478 250.5,953.5C 259.943,924.349 268.443,895.016 276,865.5C 253.896,851.071 233.229,834.738 214,816.5C 187.306,832.014 160.306,847.014 133,861.5C 113.902,842.412 97.0688,821.579 82.5,799C 102.783,775.713 123.45,752.713 144.5,730C 130.669,707.171 118.835,683.337 109,658.5C 78.2536,661.14 47.4203,662.974 16.5,664C 9.31787,641.439 3.6512,618.606 -0.5,595.5C -0.5,592.167 -0.5,588.833 -0.5,585.5C 27.4743,574.182 55.4743,562.849 83.5,551.5C 83.8333,549.5 84.1667,547.5 84.5,545.5C 83.5728,520.81 83.2395,496.143 83.5,471.5C 55.4743,460.151 27.4743,448.818 -0.5,437.5C -0.5,434.167 -0.5,430.833 -0.5,427.5C 3.6512,404.394 9.31787,381.561 16.5,359C 47.2258,360.004 77.8924,361.837 108.5,364.5C 118.743,339.847 130.743,316.014 144.5,293C 123.45,270.287 102.783,247.287 82.5,224C 97.0025,201.705 113.669,181.038 132.5,162C 160.047,175.862 187.214,190.695 214,206.5C 233.229,188.262 253.896,171.929 276,157.5C 268.443,127.984 259.943,98.6506 250.5,69.5C 261.835,61.7025 273.835,54.8692 286.5,49C 298.493,43.4199 310.66,38.2532 323,33.5C 324.261,33.7591 325.261,34.4258 326,35.5C 342.983,60.2988 360.483,84.6321 378.5,108.5C 402.849,100.73 427.682,95.0635 453,91.5C 454.326,91.2451 455.326,90.5784 456,89.5C 460.667,60.8333 465.333,32.1667 470,3.5C 470.48,1.86698 471.313,0.533646 472.5,-0.5 Z"/></g>
<g><path style="opacity:1" fill="#00a7e1" d="M 414.5,216.5 C 415.552,216.351 416.552,216.517 417.5,217C 372.645,358.578 328.478,500.412 285,642.5C 278.723,662.665 272.056,682.665 265,702.5C 201.484,618.58 183.484,525.58 211,423.5C 245.098,321.236 312.931,252.236 414.5,216.5 Z"/></g>
<g><path style="opacity:1" fill="#de2934" d="M 608.5,218.5 C 609.601,217.402 610.934,217.235 612.5,218C 712.171,254.337 778.671,322.837 812,423.5C 836.623,512.137 825.289,595.804 778,674.5C 772.387,683.112 766.387,691.446 760,699.5C 753.263,680.621 746.929,661.621 741,642.5C 697.737,500.751 653.57,359.418 608.5,218.5 Z"/></g>
<g><path style="opacity:1" fill="#fea400" d="M 509.5,296.5 C 530.95,381.3 552.284,466.3 573.5,551.5C 531.5,551.5 489.5,551.5 447.5,551.5C 470.217,466.968 490.883,381.968 509.5,296.5 Z"/></g>
<g><path style="opacity:1" fill="#83dd62" d="M 417.5,665.5 C 479.5,665.5 541.5,665.5 603.5,665.5C 613.925,708.367 624.592,751.201 635.5,794C 635.167,794.833 634.833,795.667 634.5,796.5C 551.691,830.102 469.024,829.768 386.5,795.5C 386.167,794.833 385.833,794.167 385.5,793.5C 396.168,750.828 406.835,708.161 417.5,665.5 Z"/></g>
</svg>
